<svg xmlns="http://www.w3.org/2000/svg" viewBox="0 0 800 500" fill="none">
  <defs>
    <linearGradient id="bg" x1="0" y1="0" x2="800" y2="500" gradientUnits="userSpaceOnUse">
      <stop stop-color="#0a0a08"/>
      <stop offset="1" stop-color="#161614"/>
    </linearGradient>
    <linearGradient id="gold" x1="200" y1="150" x2="600" y2="350" gradientUnits="userSpaceOnUse">
      <stop stop-color="#e8d5a3"/>
      <stop offset="0.5" stop-color="#d8b86a"/>
      <stop offset="1" stop-color="#b8943f"/>
    </linearGradient>
  </defs>
  <rect width="800" height="500" fill="url(#bg)"/>
  <ellipse cx="400" cy="420" rx="280" ry="30" fill="#000" opacity="0.4"/>
  <path d="M180 320c20-60 80-100 140-100h160c60 0 120 40 140 100l20 40H160l20-40z" fill="url(#gold)" opacity="0.9"/>
  <path d="M200 300c15-30 50-50 90-50h120c40 0 75 20 90 50" stroke="#d8b86a" stroke-width="3" fill="none" opacity="0.5"/>
  <circle cx="250" cy="360" r="35" fill="#1a1a18" stroke="#d8b86a" stroke-width="3"/>
  <circle cx="550" cy="360" r="35" fill="#1a1a18" stroke="#d8b86a" stroke-width="3"/>
  <circle cx="250" cy="360" r="15" fill="#d8b86a" opacity="0.3"/>
  <circle cx="550" cy="360" r="15" fill="#d8b86a" opacity="0.3"/>
  <text x="400" y="80" text-anchor="middle" fill="#d8b86a" font-family="system-ui,sans-serif" font-size="24" font-weight="700" letter-spacing="3">FAME LUXURY</text>
  <text x="400" y="115" text-anchor="middle" fill="#9a958a" font-family="system-ui,sans-serif" font-size="14" letter-spacing="2">CAR RENTAL</text>
</svg>
